<svg xmlns="http://www.w3.org/2000/svg" xmlns:xlink="http://www.w3.org/1999/xlink" width="500" zoomAndPan="magnify" viewBox="85 148 200 68" height="500" preserveAspectRatio="xMidYMid meet" version="1.0"><defs><g/><clipPath id="96f72265db"><path d="M 92.085938 152.53125 L 138 152.53125 L 138 198 L 92.085938 198 Z M 92.085938 152.53125 " clip-rule="nonzero"/></clipPath><clipPath id="20fdd9dd6a"><path d="M 237 193 L 282.730469 193 L 282.730469 238.414062 L 237 238.414062 Z M 237 193 " clip-rule="nonzero"/></clipPath></defs><g clip-path="url(#96f72265db)"><path fill="#000000" d="M 93.960938 197.5 L 92.085938 197.5 L 92.085938 152.019531 L 137.566406 152.019531 L 137.566406 153.894531 L 93.960938 153.894531 Z M 93.960938 197.5 " fill-opacity="1" fill-rule="nonzero"/></g><g clip-path="url(#20fdd9dd6a)"><path fill="#000000" d="M 282.910156 238.757812 L 237.433594 238.757812 L 237.433594 236.882812 L 281.035156 236.882812 L 281.035156 193.28125 L 282.910156 193.28125 Z M 282.910156 238.757812 " fill-opacity="1" fill-rule="nonzero"/></g><g fill="#000000" fill-opacity="1"><g transform="translate(118.919446, 196.634226)"><g><path d="M 2.734375 -15.921875 L 2.734375 0 L 4.796875 0 L 4.796875 -7.03125 L 5.796875 -7.03125 C 6.222656 -7.03125 6.578125 -6.988281 6.859375 -6.90625 C 7.140625 -6.832031 7.390625 -6.703125 7.609375 -6.515625 C 7.835938 -6.335938 8.050781 -6.101562 8.25 -5.8125 C 8.445312 -5.53125 8.679688 -5.175781 8.953125 -4.75 L 10.75 -2.09375 C 10.976562 -1.738281 11.203125 -1.414062 11.421875 -1.125 C 11.640625 -0.84375 11.878906 -0.597656 12.140625 -0.390625 C 12.398438 -0.191406 12.691406 -0.0351562 13.015625 0.078125 C 13.335938 0.203125 13.726562 0.265625 14.1875 0.265625 C 14.519531 0.265625 14.789062 0.25 15 0.21875 C 15.21875 0.195312 15.429688 0.125 15.640625 0 L 15.640625 -0.84375 C 15.566406 -0.820312 15.488281 -0.804688 15.40625 -0.796875 C 15.332031 -0.796875 15.257812 -0.796875 15.1875 -0.796875 C 14.863281 -0.796875 14.582031 -0.835938 14.34375 -0.921875 C 14.101562 -1.015625 13.875 -1.148438 13.65625 -1.328125 C 13.445312 -1.503906 13.242188 -1.71875 13.046875 -1.96875 C 12.847656 -2.21875 12.644531 -2.5 12.4375 -2.8125 C 11.800781 -3.738281 11.304688 -4.476562 10.953125 -5.03125 C 10.609375 -5.582031 10.332031 -6.007812 10.125 -6.3125 C 9.925781 -6.625 9.757812 -6.847656 9.625 -6.984375 C 9.5 -7.117188 9.34375 -7.234375 9.15625 -7.328125 L 8.9375 -7.4375 L 8.9375 -7.53125 C 9.664062 -7.570312 10.289062 -7.726562 10.8125 -8 C 11.332031 -8.269531 11.757812 -8.609375 12.09375 -9.015625 C 12.425781 -9.429688 12.664062 -9.878906 12.8125 -10.359375 C 12.96875 -10.835938 13.046875 -11.300781 13.046875 -11.75 C 13.046875 -12.164062 12.96875 -12.613281 12.8125 -13.09375 C 12.65625 -13.582031 12.378906 -14.035156 11.984375 -14.453125 C 11.597656 -14.867188 11.070312 -15.21875 10.40625 -15.5 C 9.738281 -15.78125 8.898438 -15.921875 7.890625 -15.921875 Z M 4.796875 -14.90625 L 7.09375 -14.90625 C 7.664062 -14.90625 8.179688 -14.820312 8.640625 -14.65625 C 9.109375 -14.488281 9.507812 -14.257812 9.84375 -13.96875 C 10.175781 -13.675781 10.425781 -13.320312 10.59375 -12.90625 C 10.769531 -12.5 10.859375 -12.054688 10.859375 -11.578125 C 10.859375 -11.160156 10.78125 -10.742188 10.625 -10.328125 C 10.46875 -9.910156 10.226562 -9.53125 9.90625 -9.1875 C 9.59375 -8.851562 9.203125 -8.578125 8.734375 -8.359375 C 8.273438 -8.148438 7.742188 -8.046875 7.140625 -8.046875 L 4.796875 -8.046875 Z M 4.796875 -14.90625 "/></g></g></g><g fill="#000000" fill-opacity="1"><g transform="translate(137.780938, 196.634226)"><g><path d="M 2.734375 -15.921875 L 2.734375 0 L 13 0 L 13 -1.25 L 4.796875 -1.25 L 4.796875 -7.90625 L 11.84375 -7.90625 L 11.84375 -8.953125 L 4.796875 -8.953125 L 4.796875 -14.65625 L 13 -14.65625 L 13 -15.921875 Z M 2.734375 -15.921875 "/></g></g></g><g fill="#000000" fill-opacity="1"><g transform="translate(154.006615, 196.634226)"><g><path d="M 11.578125 -4.6875 L 13.75 0 L 15.953125 0 L 8.546875 -15.921875 L 7.40625 -15.921875 L 0.6875 0 L 1.734375 0 L 3.734375 -4.6875 Z M 11.09375 -5.703125 L 4.15625 -5.703125 L 7.4375 -13.375 L 7.53125 -13.375 Z M 11.09375 -5.703125 "/></g></g></g><g fill="#000000" fill-opacity="1"><g transform="translate(173.186228, 196.634226)"><g><path d="M 2.734375 0 L 2.734375 -15.921875 L 4.796875 -15.921875 L 4.796875 -1.25 L 13 -1.25 L 13 0 Z M 2.734375 0 "/></g></g></g><g fill="#000000" fill-opacity="1"><g transform="translate(189.411906, 196.634226)"><g><path d="M 11.578125 -4.6875 L 13.75 0 L 15.953125 0 L 8.546875 -15.921875 L 7.40625 -15.921875 L 0.6875 0 L 1.734375 0 L 3.734375 -4.6875 Z M 11.09375 -5.703125 L 4.15625 -5.703125 L 7.4375 -13.375 L 7.53125 -13.375 Z M 11.09375 -5.703125 "/></g></g></g><g fill="#000000" fill-opacity="1"><g transform="translate(208.591522, 196.634226)"><g><path d="M 2.734375 0 L 8.4375 0 C 9.445312 0 10.300781 -0.128906 11 -0.390625 C 11.695312 -0.660156 12.257812 -1.003906 12.6875 -1.421875 C 13.113281 -1.847656 13.421875 -2.332031 13.609375 -2.875 C 13.796875 -3.414062 13.890625 -3.957031 13.890625 -4.5 C 13.890625 -5.363281 13.703125 -6.050781 13.328125 -6.5625 C 12.960938 -7.082031 12.519531 -7.476562 12 -7.75 C 11.488281 -8.019531 10.957031 -8.203125 10.40625 -8.296875 C 9.863281 -8.390625 9.425781 -8.441406 9.09375 -8.453125 L 9.09375 -8.546875 C 9.625 -8.546875 10.125 -8.644531 10.59375 -8.84375 C 11.0625 -9.050781 11.472656 -9.316406 11.828125 -9.640625 C 12.191406 -9.972656 12.476562 -10.351562 12.6875 -10.78125 C 12.894531 -11.21875 13 -11.675781 13 -12.15625 C 13 -12.582031 12.90625 -13.015625 12.71875 -13.453125 C 12.539062 -13.898438 12.265625 -14.300781 11.890625 -14.65625 C 11.523438 -15.019531 11.050781 -15.320312 10.46875 -15.5625 C 9.882812 -15.800781 9.195312 -15.921875 8.40625 -15.921875 L 2.734375 -15.921875 Z M 4.796875 -1 L 4.796875 -7.953125 L 7.296875 -7.953125 C 8.035156 -7.953125 8.675781 -7.851562 9.21875 -7.65625 C 9.769531 -7.457031 10.222656 -7.191406 10.578125 -6.859375 C 10.929688 -6.523438 11.195312 -6.140625 11.375 -5.703125 C 11.550781 -5.265625 11.640625 -4.800781 11.640625 -4.3125 C 11.640625 -3.789062 11.546875 -3.320312 11.359375 -2.90625 C 11.171875 -2.5 10.914062 -2.148438 10.59375 -1.859375 C 10.269531 -1.578125 9.894531 -1.363281 9.46875 -1.21875 C 9.039062 -1.070312 8.582031 -1 8.09375 -1 Z M 4.796875 -8.953125 L 4.796875 -14.90625 L 7.578125 -14.90625 C 8.160156 -14.90625 8.660156 -14.820312 9.078125 -14.65625 C 9.492188 -14.488281 9.832031 -14.269531 10.09375 -14 C 10.363281 -13.726562 10.554688 -13.414062 10.671875 -13.0625 C 10.796875 -12.71875 10.859375 -12.375 10.859375 -12.03125 C 10.859375 -11.59375 10.769531 -11.179688 10.59375 -10.796875 C 10.425781 -10.421875 10.1875 -10.09375 9.875 -9.8125 C 9.5625 -9.539062 9.203125 -9.328125 8.796875 -9.171875 C 8.398438 -9.023438 7.976562 -8.953125 7.53125 -8.953125 Z M 4.796875 -8.953125 "/></g></g></g><g fill="#000000" fill-opacity="1"><g transform="translate(226.157824, 196.634226)"><g><path d="M 2.734375 0 L 2.734375 -15.921875 L 4.796875 -15.921875 L 4.796875 -1.25 L 13 -1.25 L 13 0 Z M 2.734375 0 "/></g></g></g><g fill="#000000" fill-opacity="1"><g transform="translate(242.383497, 196.634226)"><g><path d="M 2.734375 -15.921875 L 2.734375 0 L 13 0 L 13 -1.25 L 4.796875 -1.25 L 4.796875 -7.90625 L 11.84375 -7.90625 L 11.84375 -8.953125 L 4.796875 -8.953125 L 4.796875 -14.65625 L 13 -14.65625 L 13 -15.921875 Z M 2.734375 -15.921875 "/></g></g></g><g fill="#000000" fill-opacity="1"><g transform="translate(150.758699, 212.254514)"><g><path d="M 0.625 0 L 1.359375 0 L 1.359375 -1.8125 C 1.359375 -2.78125 1.78125 -3.25 2.34375 -3.25 C 2.515625 -3.25 2.671875 -3.203125 2.796875 -3.109375 L 3.125 -3.75 C 2.96875 -3.890625 2.734375 -3.984375 2.46875 -3.984375 C 2 -3.984375 1.546875 -3.703125 1.359375 -3.234375 L 1.359375 -3.90625 L 0.625 -3.90625 Z M 0.625 0 "/></g></g></g><g fill="#000000" fill-opacity="1"><g transform="translate(154.782562, 212.254514)"><g><path d="M 2.15625 0.0625 C 2.796875 0.0625 3.265625 -0.140625 3.703125 -0.59375 L 3.171875 -1.03125 C 2.890625 -0.71875 2.5625 -0.609375 2.15625 -0.609375 C 1.453125 -0.609375 1.125 -1.09375 1.09375 -1.703125 L 3.796875 -1.703125 C 3.796875 -1.765625 3.8125 -1.90625 3.8125 -2.03125 C 3.8125 -2.921875 3.40625 -3.96875 2.09375 -3.96875 C 0.875 -3.96875 0.296875 -2.96875 0.296875 -1.9375 C 0.296875 -0.875 0.890625 0.0625 2.15625 0.0625 Z M 1.09375 -2.28125 C 1.140625 -2.859375 1.4375 -3.34375 2.078125 -3.34375 C 2.75 -3.34375 3.046875 -2.875 3.078125 -2.28125 Z M 1.09375 -2.28125 "/></g></g></g><g fill="#000000" fill-opacity="1"><g transform="translate(159.767203, 212.254514)"><g><path d="M 1.59375 0.078125 C 2.109375 0.078125 2.59375 -0.125 2.890625 -0.65625 L 2.9375 0 L 3.5625 0 L 3.5625 -2.390625 C 3.5625 -3.328125 2.984375 -3.984375 1.96875 -3.984375 C 1.265625 -3.984375 0.765625 -3.671875 0.40625 -3.171875 L 0.984375 -2.75 C 1.15625 -3.03125 1.484375 -3.328125 1.984375 -3.328125 C 2.59375 -3.328125 2.859375 -2.90625 2.859375 -2.28125 L 1.90625 -2.28125 C 0.90625 -2.28125 0.265625 -1.953125 0.265625 -1.140625 C 0.265625 -0.375 0.828125 0.078125 1.59375 0.078125 Z M 1.703125 -0.5625 C 1.3125 -0.5625 1.046875 -0.75 1.046875 -1.125 C 1.046875 -1.515625 1.34375 -1.71875 1.953125 -1.71875 L 2.859375 -1.71875 C 2.84375 -1.15625 2.375 -0.5625 1.703125 -0.5625 Z M 1.703125 -0.5625 "/></g></g></g><g fill="#000000" fill-opacity="1"><g transform="translate(164.716694, 212.254514)"><g><path d="M 1.3125 0.078125 C 1.53125 0.078125 1.765625 0.046875 1.9375 0 L 1.9375 -0.625 C 1.84375 -0.609375 1.703125 -0.59375 1.609375 -0.59375 C 1.40625 -0.59375 1.359375 -0.765625 1.359375 -0.828125 L 1.359375 -5.515625 L 0.59375 -5.515625 L 0.59375 -0.78125 C 0.59375 -0.21875 0.796875 0.078125 1.3125 0.078125 Z M 1.3125 0.078125 "/></g></g></g><g fill="#000000" fill-opacity="1"><g transform="translate(167.721195, 212.254514)"><g><path d="M 2.15625 0.0625 C 2.796875 0.0625 3.265625 -0.140625 3.703125 -0.59375 L 3.171875 -1.03125 C 2.890625 -0.71875 2.5625 -0.609375 2.15625 -0.609375 C 1.453125 -0.609375 1.125 -1.09375 1.09375 -1.703125 L 3.796875 -1.703125 C 3.796875 -1.765625 3.8125 -1.90625 3.8125 -2.03125 C 3.8125 -2.921875 3.40625 -3.96875 2.09375 -3.96875 C 0.875 -3.96875 0.296875 -2.96875 0.296875 -1.9375 C 0.296875 -0.875 0.890625 0.0625 2.15625 0.0625 Z M 1.09375 -2.28125 C 1.140625 -2.859375 1.4375 -3.34375 2.078125 -3.34375 C 2.75 -3.34375 3.046875 -2.875 3.078125 -2.28125 Z M 1.09375 -2.28125 "/></g></g></g><g fill="#000000" fill-opacity="1"><g transform="translate(172.705837, 212.254514)"><g><path d="M 1.75 0.078125 C 2.453125 0.078125 3.171875 -0.3125 3.171875 -1.171875 C 3.171875 -2.59375 1.125 -2.1875 1.125 -2.9375 C 1.125 -3.1875 1.34375 -3.390625 1.71875 -3.390625 C 2.140625 -3.390625 2.390625 -3.15625 2.546875 -2.859375 L 3.125 -3.171875 C 2.859375 -3.671875 2.375 -3.984375 1.75 -3.984375 C 1.03125 -3.984375 0.40625 -3.59375 0.40625 -2.84375 C 0.40625 -1.5 2.421875 -1.96875 2.421875 -1.109375 C 2.421875 -0.78125 2.171875 -0.546875 1.71875 -0.546875 C 1.203125 -0.546875 0.9375 -0.890625 0.8125 -1.234375 L 0.203125 -0.953125 C 0.390625 -0.390625 0.96875 0.078125 1.75 0.078125 Z M 1.75 0.078125 "/></g></g></g><g fill="#000000" fill-opacity="1"><g transform="translate(177.053865, 212.254514)"><g><path d="M 1.84375 0.078125 C 2.09375 0.078125 2.34375 0.03125 2.453125 -0.015625 L 2.453125 -0.6875 C 2.328125 -0.625 2.15625 -0.578125 1.984375 -0.578125 C 1.71875 -0.578125 1.515625 -0.734375 1.515625 -1.140625 L 1.515625 -3.28125 L 2.5 -3.28125 L 2.5 -3.90625 L 1.515625 -3.90625 L 1.515625 -5.4375 L 0.78125 -4.828125 L 0.78125 -3.90625 L 0.140625 -3.90625 L 0.140625 -3.28125 L 0.765625 -3.28125 L 0.765625 -1.0625 C 0.765625 -0.375 1.109375 0.078125 1.84375 0.078125 Z M 1.84375 0.078125 "/></g></g></g><g fill="#000000" fill-opacity="1"><g transform="translate(180.710601, 212.254514)"><g><path d="M 1.59375 0.078125 C 2.109375 0.078125 2.59375 -0.125 2.890625 -0.65625 L 2.9375 0 L 3.5625 0 L 3.5625 -2.390625 C 3.5625 -3.328125 2.984375 -3.984375 1.96875 -3.984375 C 1.265625 -3.984375 0.765625 -3.671875 0.40625 -3.171875 L 0.984375 -2.75 C 1.15625 -3.03125 1.484375 -3.328125 1.984375 -3.328125 C 2.59375 -3.328125 2.859375 -2.90625 2.859375 -2.28125 L 1.90625 -2.28125 C 0.90625 -2.28125 0.265625 -1.953125 0.265625 -1.140625 C 0.265625 -0.375 0.828125 0.078125 1.59375 0.078125 Z M 1.703125 -0.5625 C 1.3125 -0.5625 1.046875 -0.75 1.046875 -1.125 C 1.046875 -1.515625 1.34375 -1.71875 1.953125 -1.71875 L 2.859375 -1.71875 C 2.84375 -1.15625 2.375 -0.5625 1.703125 -0.5625 Z M 1.703125 -0.5625 "/></g></g></g><g fill="#000000" fill-opacity="1"><g transform="translate(185.660092, 212.254514)"><g><path d="M 1.84375 0.078125 C 2.09375 0.078125 2.34375 0.03125 2.453125 -0.015625 L 2.453125 -0.6875 C 2.328125 -0.625 2.15625 -0.578125 1.984375 -0.578125 C 1.71875 -0.578125 1.515625 -0.734375 1.515625 -1.140625 L 1.515625 -3.28125 L 2.5 -3.28125 L 2.5 -3.90625 L 1.515625 -3.90625 L 1.515625 -5.4375 L 0.78125 -4.828125 L 0.78125 -3.90625 L 0.140625 -3.90625 L 0.140625 -3.28125 L 0.765625 -3.28125 L 0.765625 -1.0625 C 0.765625 -0.375 1.109375 0.078125 1.84375 0.078125 Z M 1.84375 0.078125 "/></g></g></g><g fill="#000000" fill-opacity="1"><g transform="translate(189.316828, 212.254514)"><g><path d="M 2.15625 0.0625 C 2.796875 0.0625 3.265625 -0.140625 3.703125 -0.59375 L 3.171875 -1.03125 C 2.890625 -0.71875 2.5625 -0.609375 2.15625 -0.609375 C 1.453125 -0.609375 1.125 -1.09375 1.09375 -1.703125 L 3.796875 -1.703125 C 3.796875 -1.765625 3.8125 -1.90625 3.8125 -2.03125 C 3.8125 -2.921875 3.40625 -3.96875 2.09375 -3.96875 C 0.875 -3.96875 0.296875 -2.96875 0.296875 -1.9375 C 0.296875 -0.875 0.890625 0.0625 2.15625 0.0625 Z M 1.09375 -2.28125 C 1.140625 -2.859375 1.4375 -3.34375 2.078125 -3.34375 C 2.75 -3.34375 3.046875 -2.875 3.078125 -2.28125 Z M 1.09375 -2.28125 "/></g></g></g><g fill="#000000" fill-opacity="1"><g transform="translate(194.301471, 212.254514)"><g/></g></g><g fill="#000000" fill-opacity="1"><g transform="translate(197.204427, 212.254514)"><g><path d="M 5.0625 -0.203125 L 4.234375 -1.171875 C 4.46875 -1.59375 4.625 -2.09375 4.65625 -2.640625 L 3.953125 -2.71875 C 3.921875 -2.359375 3.859375 -2.03125 3.734375 -1.734375 L 2.75 -2.859375 C 3.3125 -3.234375 3.8125 -3.671875 3.8125 -4.34375 C 3.8125 -5.046875 3.203125 -5.59375 2.46875 -5.59375 C 1.734375 -5.59375 1.03125 -5.125 1.03125 -4.34375 C 1.03125 -3.796875 1.46875 -3.296875 1.734375 -2.984375 C 1.0625 -2.578125 0.40625 -2.078125 0.40625 -1.234375 C 0.40625 -0.375 1.15625 0.09375 2.09375 0.09375 C 2.796875 0.09375 3.375 -0.1875 3.8125 -0.609375 L 4.546875 0.25 Z M 1.734375 -4.328125 C 1.734375 -4.75 2.09375 -4.984375 2.46875 -4.984375 C 2.859375 -4.984375 3.140625 -4.703125 3.140625 -4.34375 C 3.140625 -3.921875 2.765625 -3.625 2.296875 -3.328125 C 2.046875 -3.59375 1.734375 -4 1.734375 -4.328125 Z M 2.09375 -0.578125 C 1.5625 -0.578125 1.109375 -0.765625 1.109375 -1.234375 C 1.109375 -1.78125 1.609375 -2.140625 2.1875 -2.5 L 3.359375 -1.125 C 3.0625 -0.78125 2.640625 -0.578125 2.09375 -0.578125 Z M 2.09375 -0.578125 "/></g></g></g><g fill="#000000" fill-opacity="1"><g transform="translate(203.470105, 212.254514)"><g/></g></g><g fill="#000000" fill-opacity="1"><g transform="translate(206.37306, 212.254514)"><g><path d="M 1.84375 0.078125 C 2.09375 0.078125 2.34375 0.03125 2.453125 -0.015625 L 2.453125 -0.6875 C 2.328125 -0.625 2.15625 -0.578125 1.984375 -0.578125 C 1.71875 -0.578125 1.515625 -0.734375 1.515625 -1.140625 L 1.515625 -3.28125 L 2.5 -3.28125 L 2.5 -3.90625 L 1.515625 -3.90625 L 1.515625 -5.4375 L 0.78125 -4.828125 L 0.78125 -3.90625 L 0.140625 -3.90625 L 0.140625 -3.28125 L 0.765625 -3.28125 L 0.765625 -1.0625 C 0.765625 -0.375 1.109375 0.078125 1.84375 0.078125 Z M 1.84375 0.078125 "/></g></g></g><g fill="#000000" fill-opacity="1"><g transform="translate(210.029796, 212.254514)"><g><path d="M 2.15625 0.0625 C 2.796875 0.0625 3.265625 -0.140625 3.703125 -0.59375 L 3.171875 -1.03125 C 2.890625 -0.71875 2.5625 -0.609375 2.15625 -0.609375 C 1.453125 -0.609375 1.125 -1.09375 1.09375 -1.703125 L 3.796875 -1.703125 C 3.796875 -1.765625 3.8125 -1.90625 3.8125 -2.03125 C 3.8125 -2.921875 3.40625 -3.96875 2.09375 -3.96875 C 0.875 -3.96875 0.296875 -2.96875 0.296875 -1.9375 C 0.296875 -0.875 0.890625 0.0625 2.15625 0.0625 Z M 1.09375 -2.28125 C 1.140625 -2.859375 1.4375 -3.34375 2.078125 -3.34375 C 2.75 -3.34375 3.046875 -2.875 3.078125 -2.28125 Z M 1.09375 -2.28125 "/></g></g></g><g fill="#000000" fill-opacity="1"><g transform="translate(215.014437, 212.254514)"><g><path d="M 2.078125 0.078125 C 2.828125 0.078125 3.390625 -0.328125 3.625 -1.015625 L 2.953125 -1.28125 C 2.84375 -0.875 2.5 -0.59375 2.078125 -0.59375 C 1.328125 -0.59375 1.0625 -1.296875 1.0625 -1.953125 C 1.0625 -2.59375 1.34375 -3.3125 2.078125 -3.3125 C 2.515625 -3.3125 2.84375 -3.03125 2.953125 -2.609375 L 3.671875 -2.890625 C 3.390625 -3.59375 2.8125 -3.984375 2.078125 -3.984375 C 0.875 -3.984375 0.296875 -2.984375 0.296875 -1.953125 C 0.296875 -0.90625 0.890625 0.078125 2.078125 0.078125 Z M 2.078125 0.078125 "/></g></g></g><g fill="#000000" fill-opacity="1"><g transform="translate(219.753025, 212.254514)"><g><path d="M 0.625 0 L 1.390625 0 L 1.390625 -2.046875 C 1.390625 -2.734375 1.78125 -3.28125 2.421875 -3.28125 C 3.046875 -3.28125 3.1875 -2.78125 3.1875 -2.28125 L 3.1875 0 L 3.96875 0 L 3.96875 -2.375 C 3.96875 -3.203125 3.5625 -3.984375 2.59375 -3.984375 C 2.140625 -3.984375 1.671875 -3.765625 1.390625 -3.34375 L 1.390625 -5.515625 L 0.625 -5.515625 Z M 0.625 0 "/></g></g></g><path stroke-linecap="round" transform="matrix(0.75, 0, 0, 0.75, 116.008444, 209.139229)" fill="none" stroke-linejoin="miter" d="M 0.999158 1.001862 L 41.842911 1.001862 " stroke="#000000" stroke-width="2" stroke-opacity="1" stroke-miterlimit="4"/><path stroke-linecap="round" transform="matrix(0.75, 0, 0, 0.75, 229.147357, 209.139229)" fill="none" stroke-linejoin="miter" d="M 1.00144 1.001862 L 38.793109 1.001862 " stroke="#000000" stroke-width="2" stroke-opacity="1" stroke-miterlimit="4"/></svg>